# xmcd
#
# Track frame offsets:
#	150
#	11907
#	25644
#	38398
#	53250
#	62722
#	76679
#	90215
#	100579
#	117361
#	128851
#	144050
#	156104
#	167083
#	180950
#	190963
#	204214
#	214922
#	225675
#	242429
#	255308
#	265509
#	280526
#	296019
#
# Disc length: 4120 seconds
#
# Revision: 1
# Processed by: cddbd v1.5.2PL0 Copyright (c) Steve Scherf et al.
# Submitted via: audiograbber 1.83.01
#
DISCID=1e101618
DTITLE=Vikki Carr - The ways to love a man - Nashville by Carr
DYEAR=1970
DGENRE=Country
TTITLE0=The ways to love a man
TTITLE1=San Francisco is a lonely town
TTITLE2=A dissatisfied man
TTITLE3=Lincoln Street chapel
TTITLE4=Empty words of love
TTITLE5=Just for you
TTITLE6=It's a small thing
TTITLE7=Healing hands of time
TTITLE8=Honey
TTITLE9=Gone
TTITLE10=Sweet memories
TTITLE11=A million years or so
TTITLE12=Singing my song
TTITLE13=Raindrops keeps falling on my head
TTITLE14=Make it rain
TTITLE15=Tomorrow is my friend
TTITLE16=Living on a prayer. hope and a hand- me down
TTITLE17=Everybody's talkin'
TTITLE18=Sunday mornin' comin' down
TTITLE19=Until it's time for you to go
TTITLE20=You are
TTITLE21=Today I started loving you again - Crying time (Medley)
TTITLE22=Yesterday when I was young
TTITLE23=The tip of my finger
EXTD=
EXTT0=
EXTT1=
EXTT2=
EXTT3=
EXTT4=
EXTT5=
EXTT6=
EXTT7=
EXTT8=
EXTT9=
EXTT10=
EXTT11=
EXTT12=
EXTT13=
EXTT14=
EXTT15=
EXTT16=
EXTT17=
EXTT18=
EXTT19=
EXTT20=
EXTT21=
EXTT22=
EXTT23=
PLAYORDER=
